{"title":"Ant-Man.2015.1080p.BluRay.H264.AAC-RARBG","uid":12791762,"size":2429890281,"categoryP":"video","categoryS":"hd___movies","magnet":"?xt=urn:btih:0441843b80106bc73c0095d2f88b630985f5d2f0&amp;dn=Ant-Man.2015.1080p.BluRay.H264.AAC-RARBG&amp;tr=udp%3A%2F%2Ftracker.leechers-paradise.org%3A6969&amp;tr=udp%3A%2F%2Fzer0day.ch%3A1337&amp;tr=udp%3A%2F%2Fopen.demonii.com%3A1337&amp;tr=udp%3A%2F%2Ftracker.coppersurfer.tk%3A6969&amp;tr=udp%3A%2F%2Fexodus.desync.com%3A6969","seeders":2,"leechers":187,"uploader":"TheRival","files":6,"time":1447925716,"description":"Screens: \nhttp://extraimago.com/image/BYC \nhttp://extraimago.com/image/BYY \nhttp://extraimago.com/image/BYp \nhttp://extraimago.com/image/BYr \nhttp://extraimago.com/image/BYG\r\n\r\nVideo\r\nID                                       : 1\r\nFormat                                   : AVC\r\nFormat/Info                              : Advanced Video Codec\r\nFormat profile                           :   \r\nFormat settings, CABAC                   : Yes\r\nFormat settings, ReFrames                : 4 frames\r\nCodec ID                                 : avc1\r\nCodec ID/Info                            : Advanced Video Coding\r\nDuration                                 : 1h 57mn\r\nBit rate                                 : 2 500 Kbps\r\nWidth                                    : 1 920 pixels\r\nHeight                                   : 1 040 pixels\r\nDisplay aspect ratio                     : 1.85:1\r\nFrame rate mode                          : Constant\r\nFrame rate                               : 23.976 fps\r\nColor space                              : YUV\r\nChroma subsampling                       : 4:2:0\r\nBit depth                                : 8 bits\r\nScan type                                : Progressive\r\nBits/(Pixel*Frame)                       : 0.052\r\nStream size                              : 2.04 GiB (92%)\r\nWriting library                          : x264 core 148 r2597M e86f3a1\r\nEncoding settings                        : cabac=1 / ref=4 / deblock=1:-1:-1 / analyse=0x3:0x113 / me=umh / subme=9 / psy=1 / psy_rd=1.00:0.15 / mixed_ref=1 / me_range=24 / chroma_me=1 / trellis=2 / 8x8dct=1 / cqm=0 / deadzone=21,11 / fast_pskip=1 / chroma_qp_offset=-3 / threads=32 / lookahead_threads=4 / sliced_threads=0 / nr=0 / decimate=1 / interlaced=0 / bluray_compat=0 / constrained_intra=0 / bframes=3 / b_pyramid=2 / b_adapt=1 / b_bias=0 / direct=1 / weightb=1 / open_gop=0 / weightp=2 / keyint=250 / keyint_min=25 / scenecut=40 / intra_refresh=0 / rc_lookahead=50 / rc=2pass / mbtree=1 / bitrate=2500 / ratetol=1.0 / qcomp=0.60 / qpmin=0 / qpmax=69 / qpstep=4 / cplxblur=20.0 / qblur=0.5 / vbv_maxrate=31250 / vbv_bufsize=31250 / nal_hrd=none / filler=0 / ip_ratio=1.40 / aq=3:1.00\r\nEncoded date                             : UTC 1904-01-01 00:00:00\r\nTagged date                              : UTC 1904-01-01 00:00:00\r\n\r\nAudio\r\nID                                       : 2\r\nFormat                                   : AAC\r\nFormat/Info                              : Advanced Audio Codec\r\nFormat profile                           : LC\r\nCodec ID                                 : 40\r\nDuration                                 : 1h 57mn\r\nBit rate mode                            : Constant\r\nBit rate                                 : 224 Kbps\r\nChannel(s)                               : 2 channels\r\nChannel(s)_Original                      : 6 channels\r\nChannel positions                        : Front: L C R, Side: L R, LFE\r\nSampling rate                            : 48.0 KHz\r\nCompression mode                         : Lossy\r\nStream size                              : 188 MiB (8%)\r\nLanguage                                 : English\r\nEncoded date                             : UTC 1904-01-01 00:00:00\r\nTagged date                              : UTC 1904-01-01 00:00:00\r\n\r\nMenu #1\r\nID                                       : 3\r\nCodec ID                                 : text\r\nDuration                                 : 1h 57mn\r\nLanguage                                 : English\r\nEncoded date                             : UTC 1904-01-01 00:00:00\r\nTagged date                              : UTC 1904-01-01 00:00:00\r\nBit rate mode                            : CBR\r\n00:00:00.000                             : 00:00:00.000\r\n00:02:08.880                             : 00:02:08.837\r\n00:08:40.229                             : 00:08:40.186\r\n00:15:24.884                             : 00:15:24.841\r\n00:19:59.783                             : 00:19:59.740\r\n00:27:50.253                             : 00:27:50.210\r\n00:33:07.278                             : 00:33:07.235\r\n00:38:54.000                             : 00:38:53.957\r\n00:44:36.508                             : 00:44:36.465\r\n00:49:22.502                             : 00:49:22.459\r\n00:57:44.295                             : 00:57:44.252\r\n01:00:48.855                             : 01:00:48.812\r\n01:06:31.572                             : 01:06:31.529\r\n01:23:21.331                             : 01:23:21.288\r\n01:34:20.573                             : 01:34:20.530\r\n01:47:34.282                             : 01:47:34.239\r\n\r\nMenu #2\r\n00:00:00.043                             : 00:00:00.000\r\n00:02:08.880                             : 00:02:08.837\r\n00:08:40.229                             : 00:08:40.186\r\n00:15:24.884                             : 00:15:24.841\r\n00:19:59.783                             : 00:19:59.740\r\n00:27:50.253                             : 00:27:50.210\r\n00:33:07.278                             : 00:33:07.235\r\n00:38:54.000                             : 00:38:53.957\r\n00:44:36.508                             : 00:44:36.465\r\n00:49:22.502                             : 00:49:22.459\r\n00:57:44.295                             : 00:57:44.252\r\n01:00:48.855                             : 01:00:48.812\r\n01:06:31.572                             : 01:06:31.529\r\n01:23:21.331                             : 01:23:21.288\r\n01:34:20.573                             : 01:34:20.530\r\n01:47:34.282                             : 01:47:34.239","torrent":{"xt":"urn:btih:0441843b80106bc73c0095d2f88b630985f5d2f0","amp;dn":"Ant-Man.2015.1080p.BluRay.H264.AAC-RARBG","amp;tr":["udp%3A%2F%2Ftracker.leechers-paradise.org%3A6969","udp%3A%2F%2Fzer0day.ch%3A1337","udp%3A%2F%2Fopen.demonii.com%3A1337","udp%3A%2F%2Ftracker.coppersurfer.tk%3A6969","udp%3A%2F%2Fexodus.desync.com%3A6969"],"infoHash":"0441843b80106bc73c0095d2f88b630985f5d2f0","infoHashBuffer":{"type":"Buffer","data":[4,65,132,59,128,16,107,199,60,0,149,210,248,139,99,9,133,245,210,240]},"announce":[],"urlList":[]}}